<svg width="25" height="25" viewBox="0 0 25 25" fill="none" xmlns="http://www.w3.org/2000/svg">
<path d="M12.5 2.34375C10.4913 2.34375 8.52768 2.9394 6.85749 4.05539C5.18731 5.17137 3.88556 6.75756 3.11685 8.61337C2.34815 10.4692 2.14702 12.5113 2.5389 14.4814C2.93079 16.4515 3.89807 18.2612 5.31845 19.6816C6.73883 21.1019 8.5485 22.0692 10.5186 22.4611C12.4887 22.853 14.5308 22.6519 16.3866 21.8832C18.2424 21.1144 19.8286 19.8127 20.9446 18.1425C22.0606 16.4723 22.6563 14.5087 22.6563 12.5C22.6534 9.80727 21.5825 7.22564 19.6784 5.32159C17.7744 3.41754 15.1927 2.34659 12.5 2.34375ZM18.2764 10.874L13.7695 12.8047L17.0049 16.6875C17.1375 16.8468 17.2014 17.0522 17.1825 17.2586C17.1637 17.465 17.0636 17.6555 16.9043 17.7881C16.745 17.9207 16.5396 17.9846 16.3332 17.9657C16.1268 17.9469 15.9363 17.8468 15.8037 17.6875L12.5 13.7207L9.19434 17.6875C9.06173 17.8468 8.87128 17.9469 8.66488 17.9657C8.45848 17.9846 8.25304 17.9207 8.09375 17.7881C7.93447 17.6555 7.83439 17.465 7.81552 17.2586C7.79666 17.0522 7.86056 16.8468 7.99317 16.6875L11.2305 12.8047L6.72364 10.874C6.6264 10.8357 6.53784 10.7782 6.46321 10.705C6.38859 10.6319 6.3294 10.5444 6.28916 10.448C6.24893 10.3515 6.22845 10.248 6.22896 10.1434C6.22947 10.0389 6.25095 9.93555 6.29212 9.83948C6.3333 9.74341 6.39333 9.65657 6.46867 9.58412C6.544 9.51167 6.63311 9.45507 6.73072 9.41768C6.82833 9.38029 6.93244 9.36286 7.0369 9.36644C7.14137 9.37001 7.24405 9.3945 7.33887 9.43848L11.7188 11.3154V6.83594C11.7188 6.62874 11.8011 6.43002 11.9476 6.28351C12.0941 6.137 12.2928 6.05469 12.5 6.05469C12.7072 6.05469 12.9059 6.137 13.0524 6.28351C13.1989 6.43002 13.2813 6.62874 13.2813 6.83594V11.3154L17.6611 9.43848C17.756 9.3945 17.8586 9.37001 17.9631 9.36644C18.0676 9.36286 18.1717 9.38029 18.2693 9.41768C18.3669 9.45507 18.456 9.51167 18.5313 9.58412C18.6067 9.65657 18.6667 9.74341 18.7079 9.83948C18.7491 9.93555 18.7705 10.0389 18.771 10.1434C18.7716 10.248 18.7511 10.3515 18.7108 10.448C18.6706 10.5444 18.6114 10.6319 18.5368 10.705C18.4622 10.7782 18.3736 10.8357 18.2764 10.874Z" fill="#E2FF02"/>
</svg>
