<svg width="196" height="188" viewBox="0 0 196 188" fill="none" xmlns="http://www.w3.org/2000/svg">
<g filter="url(#filter0_f_35_304)">
<rect x="32" y="32" width="132" height="124" rx="62" fill="#E2FA06" fill-opacity="0.1"/>
</g>
<g clip-path="url(#clip0_35_304)">
<path d="M59.7541 74.0001L56.6228 58.041L70.9999 65.9183L63.918 67.9729L59.7541 74.0001Z" fill="black"/>
<path d="M59.7541 74.0001L56.6228 58.041L70.9999 65.9183L63.918 67.9729L59.7541 74.0001Z" stroke="white"/>
</g>
<g filter="url(#filter1_d_35_304)">
<path d="M69 76C69 74.8954 69.8954 74 71 74H115C124.389 74 132 81.6112 132 91V91C132 100.389 124.389 108 115 108H93C79.7452 108 69 97.2548 69 84V76Z" fill="#DDFF00" shape-rendering="crispEdges"/>
<path opacity="0.8" d="M84.0034 96V85.6802H92.1187V87.3501H86.1641V89.9429H91.6719V91.6128H86.1641V94.3301H92.4189V96H84.0034ZM93.9022 96V85.1309H95.9604V96H93.9022ZM97.9271 86.647V85.1309H99.9852V86.647H97.9271ZM97.9271 96V88.0752H99.9852V96H97.9271ZM103.783 96.1465C103.016 96.1465 102.418 95.939 101.988 95.5239C101.559 95.104 101.344 94.5156 101.344 93.7588C101.344 92.9385 101.61 92.3135 102.142 91.8838C102.679 91.4541 103.456 91.2344 104.471 91.2246L106.178 91.1953V90.7925C106.178 90.2749 106.088 89.8916 105.907 89.6426C105.726 89.3887 105.431 89.2617 105.021 89.2617C104.64 89.2617 104.359 89.3496 104.178 89.5254C104.003 89.6963 103.893 89.9819 103.849 90.3823L101.703 90.2798C101.835 89.5083 102.186 88.9248 102.758 88.5293C103.334 88.1289 104.117 87.9287 105.109 87.9287C106.11 87.9287 106.881 88.1753 107.423 88.6685C107.965 89.1616 108.236 89.8623 108.236 90.7705V93.6562C108.236 94.1006 108.285 94.4082 108.383 94.5791C108.485 94.7451 108.654 94.8281 108.888 94.8281C109.044 94.8281 109.196 94.8135 109.342 94.7842V95.8975C109.22 95.9268 109.11 95.9536 109.012 95.978C108.915 96.0024 108.817 96.022 108.719 96.0366C108.622 96.0513 108.517 96.0635 108.404 96.0732C108.297 96.083 108.17 96.0879 108.024 96.0879C107.506 96.0879 107.123 95.9609 106.874 95.707C106.63 95.4531 106.483 95.0796 106.434 94.5864H106.39C105.814 95.6265 104.945 96.1465 103.783 96.1465ZM106.178 92.3306L105.123 92.3452C104.645 92.3647 104.305 92.4185 104.105 92.5063C103.905 92.5894 103.751 92.7188 103.644 92.8945C103.541 93.0703 103.49 93.3047 103.49 93.5977C103.49 93.9736 103.575 94.2544 103.746 94.4399C103.922 94.6206 104.154 94.7109 104.442 94.7109C104.764 94.7109 105.057 94.623 105.321 94.4473C105.59 94.2715 105.8 94.0298 105.951 93.7222C106.102 93.4097 106.178 93.0801 106.178 92.7334V92.3306ZM112.18 89.6572C112.459 89.0518 112.808 88.6123 113.228 88.3389C113.648 88.0654 114.148 87.9287 114.729 87.9287C115.569 87.9287 116.213 88.1875 116.663 88.7051C117.112 89.2227 117.337 89.9795 117.337 90.9756V96H115.286V91.5615C115.286 90.1699 114.815 89.4741 113.872 89.4741C113.374 89.4741 112.971 89.689 112.664 90.1187C112.361 90.5435 112.21 91.0903 112.21 91.7593V96H110.151V85.1309H112.21V88.0972C112.21 88.6294 112.19 89.1494 112.151 89.6572H112.18Z" fill="black"/>
</g>
<defs>
<filter id="filter0_f_35_304" x="0.888901" y="0.888901" width="194.222" height="186.222" filterUnits="userSpaceOnUse" color-interpolation-filters="sRGB">
<feFlood flood-opacity="0" result="BackgroundImageFix"/>
<feBlend mode="normal" in="SourceGraphic" in2="BackgroundImageFix" result="shape"/>
<feGaussianBlur stdDeviation="15.5555" result="effect1_foregroundBlur_35_304"/>
</filter>
<filter id="filter1_d_35_304" x="63" y="68" width="83" height="54" filterUnits="userSpaceOnUse" color-interpolation-filters="sRGB">
<feFlood flood-opacity="0" result="BackgroundImageFix"/>
<feColorMatrix in="SourceAlpha" type="matrix" values="0 0 0 0 0 0 0 0 0 0 0 0 0 0 0 0 0 0 127 0" result="hardAlpha"/>
<feOffset dx="4" dy="4"/>
<feGaussianBlur stdDeviation="5"/>
<feComposite in2="hardAlpha" operator="out"/>
<feColorMatrix type="matrix" values="0 0 0 0 0.486275 0 0 0 0 0.831373 0 0 0 0 0.992157 0 0 0 0.16 0"/>
<feBlend mode="normal" in2="BackgroundImageFix" result="effect1_dropShadow_35_304"/>
<feBlend mode="normal" in="SourceGraphic" in2="effect1_dropShadow_35_304" result="shape"/>
</filter>
<clipPath id="clip0_35_304">
<rect width="20" height="20" fill="white" transform="translate(51 54)"/>
</clipPath>
</defs>
</svg>
