<svg width="81" height="55" viewBox="0 0 81 55" fill="none" xmlns="http://www.w3.org/2000/svg">
<g clip-path="url(#clip0_10_179)">
<path d="M8.75405 20.56L5.62305 4.60098L20 12.478L12.918 14.533L8.75405 20.56Z" fill="black"/>
<path d="M8.75405 20.56L5.62305 4.60098L20 12.478L12.918 14.533L8.75405 20.56Z" stroke="white"/>
<path d="M18 22.56C18 22.0296 18.2107 21.5209 18.5858 21.1458C18.9609 20.7707 19.4696 20.56 20 20.56H64C73.389 20.56 81 28.171 81 37.56C81 46.949 73.389 54.56 64 54.56H42C28.745 54.56 18 43.815 18 30.56V22.56Z" fill="#1E3B83"/>
<path opacity="0.8" d="M33.1851 42.56V31.91H39.8151V33.98H35.3601V36.17H38.9151V38.24H35.3601V40.49H39.8151V42.56H33.1851ZM41.3071 42.56V31.31H43.3621V42.56H41.3071ZM46.2051 33.83C45.8551 33.83 45.5501 33.705 45.2901 33.455C45.165 33.3348 45.0659 33.1903 44.9988 33.0303C44.9317 32.8704 44.8981 32.6984 44.9001 32.525C44.9001 32.165 45.0301 31.86 45.2901 31.61C45.5501 31.35 45.8551 31.22 46.2051 31.22C46.5751 31.22 46.8851 31.35 47.1351 31.61C47.3951 31.86 47.5251 32.165 47.5251 32.525C47.5251 32.885 47.3951 33.195 47.1351 33.455C46.8851 33.705 46.5751 33.83 46.2051 33.83ZM45.1851 42.56V35.06H47.2401V42.56H45.1851ZM52.1081 42.725C51.1181 42.725 50.2831 42.34 49.6031 41.57C48.9231 40.8 48.5831 39.88 48.5831 38.81C48.5831 37.74 48.9231 36.82 49.6031 36.05C50.2831 35.28 51.1181 34.895 52.1081 34.895C52.5881 34.895 53.0181 34.995 53.3981 35.195C53.7781 35.395 54.0681 35.63 54.2681 35.9V35.06H56.3231V42.56H54.2681V41.72C54.0681 41.99 53.7781 42.225 53.3981 42.425C53.0181 42.625 52.5881 42.725 52.1081 42.725ZM51.1631 40.28C51.5131 40.66 51.9731 40.85 52.5431 40.85C53.1131 40.85 53.5681 40.66 53.9081 40.28C54.2581 39.9 54.4331 39.41 54.4331 38.81C54.4331 38.21 54.2581 37.72 53.9081 37.34C53.5681 36.96 53.1131 36.77 52.5431 36.77C51.9731 36.77 51.5131 36.96 51.1631 37.34C50.8231 37.72 50.6531 38.21 50.6531 38.81C50.6531 39.41 50.8231 39.9 51.1631 40.28ZM60.2261 42.56H58.1711V31.31H60.2261V35.915C60.6861 35.235 61.4011 34.895 62.3711 34.895C63.2711 34.895 63.9761 35.195 64.4861 35.795C65.0061 36.385 65.2661 37.175 65.2661 38.165V42.56H63.2111V38.51C63.2111 37.96 63.0961 37.535 62.8661 37.235C62.6361 36.925 62.3111 36.77 61.8911 36.77C61.3911 36.77 60.9861 36.95 60.6761 37.31C60.3761 37.67 60.2261 38.2 60.2261 38.9V42.56Z" fill="black"/>
</g>
<defs>
<clipPath id="clip0_10_179">
<rect width="81" height="54" fill="white" transform="translate(0 0.559998)"/>
</clipPath>
</defs>
</svg>
