<svg width="83" height="51" viewBox="0 0 83 51" fill="none" xmlns="http://www.w3.org/2000/svg">
<g clip-path="url(#clip0_14_948)">
<path d="M79.7961 16.56L82.927 0.601013L68.55 8.47801L75.632 10.533L79.7961 16.56Z" fill="black"/>
<path d="M79.7961 16.56L82.927 0.601013L68.55 8.47801L75.632 10.533L79.7961 16.56Z" stroke="white"/>
<path d="M70.55 18.56C70.55 18.0296 70.3393 17.5209 69.9643 17.1458C69.5892 16.7707 69.0805 16.56 68.55 16.56H17.55C8.16105 16.56 0.550049 24.171 0.550049 33.56C0.550049 42.949 8.16105 50.56 17.55 50.56H46.55C59.805 50.56 70.55 39.815 70.55 26.56V18.56Z" fill="#75B78F"/>
<path opacity="0.8" d="M19.1551 38.74C17.9451 38.74 16.9701 38.395 16.2301 37.705C15.4901 37.005 15.1001 36.19 15.0601 35.26H17.2351C17.3151 35.73 17.5301 36.095 17.8801 36.355C18.2301 36.605 18.6551 36.73 19.1551 36.73C19.6051 36.73 19.9701 36.635 20.2501 36.445C20.5301 36.245 20.6701 35.98 20.6701 35.65C20.6701 35.06 20.1951 34.63 19.2451 34.36L18.1201 34.03C17.2501 33.78 16.5701 33.39 16.0801 32.86C15.5901 32.33 15.3401 31.67 15.3301 30.88C15.3301 29.91 15.6551 29.145 16.3051 28.585C16.9551 28.015 17.8201 27.73 18.9001 27.73C19.9901 27.73 20.8751 28.06 21.5551 28.72C22.2351 29.37 22.5951 30.12 22.6351 30.97H20.4751C20.3651 30.55 20.1651 30.24 19.8751 30.04C19.5851 29.84 19.2601 29.74 18.9001 29.74C18.5001 29.74 18.1701 29.83 17.9101 30.01C17.6601 30.18 17.5301 30.42 17.5201 30.73C17.5101 31.05 17.6151 31.31 17.8351 31.51C18.0551 31.71 18.3951 31.875 18.8551 32.005L20.1001 32.35C21.9401 32.86 22.8601 33.935 22.8601 35.575C22.8601 36.495 22.5151 37.255 21.8251 37.855C21.1451 38.445 20.2551 38.74 19.1551 38.74ZM27.3271 38.725C26.3371 38.725 25.5021 38.34 24.8221 37.57C24.1421 36.8 23.8021 35.88 23.8021 34.81C23.8021 33.74 24.1421 32.82 24.8221 32.05C25.5021 31.28 26.3371 30.895 27.3271 30.895C27.8071 30.895 28.2371 30.995 28.6171 31.195C28.9971 31.395 29.2871 31.63 29.4871 31.9V31.06H31.5421V38.56H29.4871V37.72C29.2871 37.99 28.9971 38.225 28.6171 38.425C28.2371 38.625 27.8071 38.725 27.3271 38.725ZM26.3821 36.28C26.7321 36.66 27.1921 36.85 27.7621 36.85C28.3321 36.85 28.7871 36.66 29.1271 36.28C29.4771 35.9 29.6521 35.41 29.6521 34.81C29.6521 34.21 29.4771 33.72 29.1271 33.34C28.7871 32.96 28.3321 32.77 27.7621 32.77C27.1921 32.77 26.7321 32.96 26.3821 33.34C26.0421 33.72 25.8721 34.21 25.8721 34.81C25.8721 35.41 26.0421 35.9 26.3821 36.28ZM33.3891 38.56V31.06H35.4441V32.26C35.5741 31.89 35.8091 31.585 36.1491 31.345C36.4991 31.095 36.8841 30.97 37.3041 30.97C37.5641 30.97 37.7941 31 37.9941 31.06V33.145C37.6641 33.035 37.3541 32.98 37.0641 32.98C36.5741 32.98 36.1791 33.16 35.8791 33.52C35.5891 33.87 35.4441 34.355 35.4441 34.975V38.56H33.3891ZM41.9391 38.725C40.9491 38.725 40.1141 38.34 39.4341 37.57C38.7541 36.8 38.4141 35.88 38.4141 34.81C38.4141 33.74 38.7541 32.82 39.4341 32.05C40.1141 31.28 40.9491 30.895 41.9391 30.895C42.4191 30.895 42.8491 30.995 43.2291 31.195C43.6091 31.395 43.8991 31.63 44.0991 31.9V31.06H46.1541V38.56H44.0991V37.72C43.8991 37.99 43.6091 38.225 43.2291 38.425C42.8491 38.625 42.4191 38.725 41.9391 38.725ZM40.9941 36.28C41.3441 36.66 41.8041 36.85 42.3741 36.85C42.9441 36.85 43.3991 36.66 43.7391 36.28C44.0891 35.9 44.2641 35.41 44.2641 34.81C44.2641 34.21 44.0891 33.72 43.7391 33.34C43.3991 32.96 42.9441 32.77 42.3741 32.77C41.8041 32.77 41.3441 32.96 40.9941 33.34C40.6541 33.72 40.4841 34.21 40.4841 34.81C40.4841 35.41 40.6541 35.9 40.9941 36.28ZM50.0571 38.56H48.0021V27.31H50.0571V31.915C50.5171 31.235 51.2321 30.895 52.2021 30.895C53.1021 30.895 53.8071 31.195 54.3161 31.795C54.8361 32.385 55.0961 33.175 55.0961 34.165V38.56H53.0421V34.51C53.0421 33.96 52.9271 33.535 52.6971 33.235C52.4671 32.925 52.1421 32.77 51.7221 32.77C51.2221 32.77 50.8171 32.95 50.5071 33.31C50.2071 33.67 50.0571 34.2 50.0571 34.9V38.56Z" fill="black"/>
</g>
<defs>
<clipPath id="clip0_14_948">
<rect width="82.377" height="49.959" fill="white" transform="translate(0.550049 0.601013)"/>
</clipPath>
</defs>
</svg>
