<svg width="20" height="20" viewBox="0 0 20 20" fill="none" xmlns="http://www.w3.org/2000/svg">
<path d="M9.31134 2.30798C9.48214 1.89734 10.0638 1.89734 10.2346 2.30798L12.3007 7.27546C12.3727 7.44858 12.5355 7.56687 12.7224 7.58185L18.0852 8.01178C18.5286 8.04732 18.7083 8.60058 18.3706 8.88991L14.2847 12.3899C14.1423 12.5119 14.0801 12.7033 14.1236 12.8856L15.3719 18.1188C15.4751 18.5514 15.0045 18.8934 14.6249 18.6615L10.0336 15.8572C9.87364 15.7595 9.67244 15.7595 9.51244 15.8572L4.92104 18.6615C4.54154 18.8934 4.07094 18.5514 4.17414 18.1188L5.42244 12.8856C5.46594 12.7033 5.40374 12.5119 5.26134 12.3899L1.17544 8.88991C0.837643 8.60058 1.01744 8.04732 1.46074 8.01178L6.82354 7.58185C7.01044 7.56687 7.17324 7.44858 7.24524 7.27546L9.31134 2.30798Z" fill="#FEC84B"/>
</svg>
