<svg width="135" height="34" viewBox="0 0 135 34" fill="none" xmlns="http://www.w3.org/2000/svg">
<g clip-path="url(#clip0_10_737)">
<g clip-path="url(#clip1_10_737)">
<mask id="mask0_10_737" style="mask-type:luminance" maskUnits="userSpaceOnUse" x="1" y="0" width="133" height="34">
<path d="M1.31812 0H133.318V33.838H1.31812V0Z" fill="white"/>
</mask>
<g mask="url(#mask0_10_737)">
<g opacity="0.8">
<path d="M49.1761 8.08578L42.4451 25.8188H45.8851L47.3161 21.6728H54.3231L55.7301 25.8188H59.1961L52.7161 8.08578H49.1761ZM48.0961 19.1618C49.6531 14.8168 50.2811 13.0578 50.8571 11.2748C51.6871 13.8618 52.5411 16.2738 53.5371 19.1618H48.0961ZM67.2951 13.0658C66.5375 13.0561 65.7885 13.2256 65.1088 13.5603C64.4292 13.8949 63.8382 14.3854 63.3841 14.9918V8.08677H60.4391V25.8198H63.2521V24.1868C64.1081 25.4168 65.2621 26.0708 66.9701 26.0708C70.0601 26.0708 72.1201 23.6588 72.1201 19.5648C72.1201 15.4708 70.2351 13.0668 67.2951 13.0668V13.0658ZM66.2421 23.6198C64.3821 23.6198 63.3021 22.0898 63.3021 19.4328C63.3021 17.0468 64.5581 15.5398 66.3421 15.5398C68.0171 15.5398 69.0541 17.0718 69.0541 19.5828C69.0541 22.2278 67.9761 23.6088 66.2421 23.6088V23.6198ZM78.2981 15.1978C79.5051 15.1978 80.4601 15.8508 81.0881 16.9578L83.2781 15.4748C82.1701 13.7138 80.3341 12.9618 78.3481 12.9618C75.2541 12.9618 73.4901 14.7718 73.4901 16.7338C73.4901 18.6458 74.7211 19.7778 76.6581 20.3808L77.9981 20.8078C79.8841 21.4108 80.3111 21.7628 80.3111 22.5938C80.3111 23.3478 79.6071 23.9018 78.3241 23.9018C76.9411 23.9018 75.7841 23.1468 75.1321 21.8638L72.8431 23.3708C73.8991 24.9558 75.6341 26.1888 78.2031 26.1888C81.3231 26.1888 83.2581 24.5038 83.2581 22.1888C83.2581 20.1788 82.0011 19.1458 79.7881 18.4408L78.4481 18.0388C76.8381 17.5368 76.4381 17.1848 76.4381 16.4308C76.4381 15.6768 77.0351 15.1978 78.2981 15.1978ZM89.2301 21.9438V15.6748H91.6531V13.3178H89.2301V9.22977H86.3031L86.2461 13.3198H84.2901V15.6758H86.2461V22.5278C86.2461 23.6868 86.4241 24.5698 86.9511 25.1738C87.4791 25.7788 88.2911 26.0808 89.5191 26.0808C90.2607 26.0786 90.9991 25.9836 91.7171 25.7978V23.4498C91.3301 23.5928 90.9211 23.6698 90.5071 23.6758C89.5971 23.6848 89.2301 23.2328 89.2301 21.9438ZM96.1301 15.2438V13.3188H93.3161V25.8818H96.2641V20.0198C96.2641 18.6798 96.4851 17.7958 96.9191 17.1428C97.4651 16.3588 98.2461 15.8848 99.5991 15.8998C99.9651 15.9058 100.328 15.9618 100.678 16.0668V13.3198C100.329 13.2074 99.9653 13.1507 99.5991 13.1518C97.8671 13.1568 96.8871 13.8878 96.1301 15.2438ZM111.969 22.4468V17.9238C111.969 15.9608 111.706 14.9298 110.925 14.1998C110.088 13.3938 108.887 12.9918 107.176 12.9918C103.98 12.9918 101.963 14.4998 101.762 17.2198L104.585 17.4718C104.736 16.0878 105.414 15.3068 106.95 15.3068C107.731 15.3068 108.334 15.4748 108.686 15.8348C109.037 16.1948 109.165 16.6408 109.165 17.3428V18.0128C107.176 18.1398 104.761 18.4918 103.528 19.0438C102.044 19.7238 101.238 20.7818 101.238 22.3938C101.238 24.6338 102.848 26.0698 105.138 26.0698C106.923 26.0698 108.282 25.4418 109.238 24.2838C109.511 25.5358 110.392 25.9978 111.967 25.9978C112.422 26.0068 112.875 25.9388 113.307 25.7968V23.8868C112.175 24.0918 111.977 23.4268 111.969 22.4468ZM109.165 20.5598C109.138 21.2638 109.014 21.9698 108.61 22.5488C108.057 23.3778 107.126 23.8568 105.994 23.8568C104.685 23.8568 104.081 23.1768 104.081 22.2718C104.081 21.5668 104.382 21.0878 105.163 20.7358C106.044 20.3088 107.731 20.0558 109.165 19.9808V20.5608V20.5598ZM120.042 23.7148C118.107 23.7148 116.95 22.2578 116.95 19.4938C116.95 16.7038 118.258 15.4238 119.965 15.4238C121.146 15.4238 122.05 15.9758 122.404 17.6338L125.044 16.7298C124.464 14.4938 122.756 12.9598 120.038 12.9598C116.293 12.9598 113.929 15.4478 113.929 19.5438C113.929 23.6648 116.243 26.1778 119.888 26.1778C122.735 26.1778 124.389 24.6698 125.119 22.5838L122.479 21.6798C122.179 23.0118 121.375 23.7148 120.042 23.7148ZM130.717 21.9438V15.6748H133.138V13.3178H130.717V9.22977H127.791L127.739 13.3198H125.781V15.6758H127.744V22.5278C127.744 23.6868 127.922 24.5698 128.449 25.1738C128.977 25.7788 129.789 26.0808 131.017 26.0808C131.755 26.0776 132.489 25.9825 133.203 25.7978V23.4498C132.816 23.5928 132.408 23.6698 131.996 23.6758C131.088 23.6848 130.717 23.2328 130.717 21.9438ZM18.1481 0.166775C4.74805 0.131775 1.38805 3.47377 1.35305 16.8748C1.31805 30.2758 4.65805 33.6348 18.0601 33.6698C31.4621 33.7048 34.8221 30.3628 34.8571 16.9618C34.8921 3.56178 31.5501 0.201775 18.1491 0.166775H18.1481ZM15.3561 26.0798C14.0876 26.08 12.8477 25.704 11.7929 24.9995C10.7382 24.2949 9.91604 23.2934 9.4305 22.1216C8.94496 20.9498 8.81782 19.6603 9.06516 18.4163C9.31249 17.1722 9.92319 16.0294 10.82 15.1325C11.7169 14.2355 12.8595 13.6246 14.1036 13.3771C15.3476 13.1295 16.6371 13.2565 17.809 13.7418C18.9809 14.2272 19.9825 15.0492 20.6872 16.1038C21.3919 17.1584 21.7681 18.3984 21.7681 19.6668C21.7662 21.3669 21.0901 22.9968 19.888 24.1991C18.686 25.4013 17.0561 26.0777 15.3561 26.0798ZM27.0031 25.8168H23.8631V11.1598H9.20405V8.01978H27.0021V25.8158L27.0031 25.8168Z" fill="white"/>
<path d="M15.355 16.396C14.9253 16.396 14.4997 16.4806 14.1027 16.6451C13.7056 16.8096 13.3449 17.0506 13.041 17.3545C12.7371 17.6584 12.4961 18.0191 12.3316 18.4162C12.1672 18.8132 12.0825 19.2387 12.0825 19.6685C12.0825 20.0982 12.1672 20.5238 12.3316 20.9208C12.4961 21.3179 12.7371 21.6786 13.041 21.9825C13.3449 22.2864 13.7056 22.5274 14.1027 22.6919C14.4997 22.8564 14.9253 22.941 15.355 22.941C16.2228 22.941 17.0551 22.5963 17.6687 21.9826C18.2823 21.369 18.627 20.5368 18.627 19.669C18.627 18.8012 18.2823 17.969 17.6687 17.3553C17.0551 16.7417 16.2228 16.396 15.355 16.396Z" fill="white"/>
</g>
</g>
</g>
</g>
<defs>
<clipPath id="clip0_10_737">
<rect width="134" height="34" fill="white" transform="translate(0.150146)"/>
</clipPath>
<clipPath id="clip1_10_737">
<rect width="133" height="34" fill="white" transform="translate(0.650146)"/>
</clipPath>
</defs>
</svg>
