<svg width="50" height="50" viewBox="0 0 50 50" fill="none" xmlns="http://www.w3.org/2000/svg">
    <path
        d="M16.666 8.349C16.666 12.949 20.399 16.682 24.999 16.682H41.666C39.4562 16.6812 37.3371 15.803 35.7745 14.2404C34.212 12.6779 33.3338 10.5588 33.333 8.349M33.318 8.333V0H16.652V8.333H33.318ZM33.334 41.68C33.334 37.081 29.6 33.348 25 33.348H8.33398C12.934 33.348 16.667 37.081 16.667 41.681"
        fill="#565656" />
    <path d="M16.682 41.667V50H33.348V41.667H16.682Z" fill="#565656" />
    <path
        d="M41.667 16.682C39.4572 16.6828 37.3381 17.561 35.7756 19.1236C34.213 20.6861 33.3348 22.8052 33.334 25.015V41.68C33.334 37.08 37.067 33.347 41.667 33.347M41.667 33.318H50V16.652H41.667V33.318ZM8.334 33.349C12.934 33.349 16.667 29.615 16.667 25.015V8.35001C16.667 12.95 12.934 16.683 8.334 16.683M8.333 16.682H0V33.348H8.333V16.682Z"
        fill="#565656" />
</svg>