<svg width="146" height="35" viewBox="0 0 146 35" fill="none" xmlns="http://www.w3.org/2000/svg">
<g clip-path="url(#clip0_10_673)">
<g clip-path="url(#clip1_10_673)">
<mask id="mask0_10_673" style="mask-type:luminance" maskUnits="userSpaceOnUse" x="1" y="0" width="145" height="34">
<path d="M1.09766 0.5H145.34V33.4862H1.09766V0.5Z" fill="white"/>
</mask>
<g mask="url(#mask0_10_673)">
<g opacity="0.8">
<path d="M50.7356 11.92C50.7356 11.2317 50.205 10.6671 49.4621 10.6671C48.7183 10.6671 48.1877 11.2317 48.1877 11.92V22.0839C48.1877 22.7722 48.7183 23.3368 49.4611 23.3368C50.2225 23.3368 50.7356 22.7722 50.7356 22.0839V11.92ZM63.2816 10.6671C62.5387 10.6671 62.0246 11.2317 62.0246 11.92V16.2606L62.0967 20.1428L60.5564 16.5079L58.5401 12.3785C57.9209 11.0906 57.2131 10.6682 56.2044 10.6682C54.7187 10.6682 54.0635 11.6026 54.0635 12.9431V22.0839C54.0635 22.7722 54.5766 23.3368 55.3204 23.3368C56.0623 23.3368 56.5764 22.7722 56.5764 22.0839L56.5589 17.7958L56.5053 13.4026L58.1507 17.4249L60.1855 21.6244C60.8223 22.9659 61.494 23.3543 62.5202 23.3543C63.8472 23.3543 64.5375 22.5424 64.5375 21.0423V11.92C64.5375 11.2317 64.0255 10.6671 63.2816 10.6671ZM73.9298 13.2614L76.8146 13.3315C77.4864 13.35 78.017 12.837 78.017 12.0962C78.017 11.3554 77.4864 10.8443 76.8146 10.8443L68.463 10.8268C67.8087 10.8268 67.2606 11.3379 67.2606 12.0786C67.2606 12.8205 67.8087 13.3315 68.463 13.315L71.3653 13.2614V22.0839C71.3653 22.7722 71.896 23.3368 72.6388 23.3368C73.3992 23.3368 73.9308 22.7722 73.9308 22.0839L73.9298 13.2614ZM82.4813 23.1771H88.6899C89.3452 23.1771 89.8758 22.6825 89.8758 21.9953C89.8758 21.2896 89.3452 20.795 88.6909 20.795L83.2942 20.8125V17.8659H87.9646C88.6023 17.8659 89.1154 17.3899 89.1154 16.7366C89.1154 16.067 88.6023 15.5899 87.9646 15.5899L83.2942 15.625V13.1903H88.6899C89.3452 13.1903 89.8758 12.6958 89.8758 11.99C89.8758 11.2843 89.3452 10.8083 88.6909 10.8083L82.4988 10.8258C81.3655 10.8258 80.7287 11.4615 80.7287 12.5907V21.4132C80.7287 22.5424 81.3665 23.1771 82.4813 23.1771ZM99.9903 18.1492C101.671 17.7082 102.662 16.4018 102.662 14.673C102.662 12.7494 101.405 10.8268 98.3984 10.8268H94.5049C93.3716 10.8268 92.7349 11.4615 92.7349 12.5907V22.0839C92.7349 22.7722 93.2665 23.3368 94.0444 23.3368C94.8058 23.3368 95.3529 22.7722 95.3529 22.0839L95.3364 18.7663H97.4773L99.6533 22.6836C100.007 23.2832 100.75 23.5305 101.44 23.1781C102.13 22.8072 102.325 22.0654 101.953 21.4657L99.9892 18.1482L99.9903 18.1492ZM95.3374 13.1728H98.416C99.4597 13.1728 100.114 13.826 100.114 14.7966C100.114 15.7496 99.4957 16.4554 98.451 16.4554H95.3374V13.1728ZM110.476 23.4079C113.059 23.4079 114.722 22.2436 115.288 20.3551C115.589 19.2784 114.952 18.5026 113.996 18.5026C113.413 18.5026 113.024 18.8014 112.794 19.4546C112.439 20.4437 111.573 21.0608 110.335 21.0608C108.371 21.0608 107.521 19.7369 107.521 16.985C107.521 14.2856 108.388 12.9977 110.335 12.9977C111.555 12.9977 112.263 13.5087 112.705 14.6905C112.952 15.3612 113.359 15.661 113.961 15.661C114.881 15.661 115.553 14.9202 115.271 13.8971C114.704 11.8149 113.059 10.6506 110.405 10.6506C106.76 10.6506 104.903 12.873 104.903 16.985C104.903 21.1309 106.76 23.4079 110.476 23.4079ZM123.055 23.3718C126.805 23.3718 128.663 21.0773 128.663 16.9839C128.663 12.8545 126.752 10.5785 123.055 10.5785C119.339 10.5785 117.481 12.8905 117.463 16.9839C117.463 21.0948 119.357 23.3718 123.055 23.3718ZM123.055 21.0073C120.966 21.0073 120.065 19.6833 120.065 16.9839C120.065 14.2485 120.985 12.9256 123.037 12.9256C125.107 12.9256 126.08 14.2485 126.062 16.9839C126.062 19.7008 125.142 21.0073 123.055 21.0073ZM145.133 12.874C145.133 11.479 144.266 10.6506 142.921 10.6506C141.825 10.6506 140.993 11.2503 140.586 12.6268L139.224 17.055L138.322 20.249L137.454 17.055L136.003 12.6268C135.597 11.3389 134.889 10.6506 133.65 10.6506C132.288 10.6506 131.439 11.4615 131.439 12.873V22.0839C131.439 22.7722 131.935 23.3368 132.66 23.3368C133.385 23.3368 133.881 22.7722 133.881 22.0839L133.863 17.6371L133.739 12.873L135.137 17.7433L136.623 22.0489C136.941 23.0019 137.543 23.3193 138.322 23.3193C139.047 23.3193 139.63 23.0545 139.931 22.0839L141.347 17.7433L142.851 12.839L142.709 17.6382V22.0839C142.709 22.7722 143.222 23.3368 143.93 23.3368C144.655 23.3368 145.15 22.7722 145.15 22.0839L145.133 12.873V12.874ZM29.736 18.652C29.736 18.9456 29.6195 19.2279 29.4135 19.435C29.3116 19.5376 29.1904 19.6191 29.0569 19.6746C28.9234 19.7302 28.7802 19.7588 28.6356 19.7588C28.491 19.7588 28.3478 19.7302 28.2143 19.6746C28.0808 19.6191 27.9596 19.5376 27.8577 19.435C27.6512 19.2267 27.5353 18.9453 27.5352 18.652V8.74665C27.5352 8.45301 27.6517 8.17071 27.8577 7.96362C27.9596 7.86101 28.0808 7.77957 28.2143 7.72399C28.3478 7.66842 28.491 7.63981 28.6356 7.63981C28.7802 7.63981 28.9234 7.66842 29.0569 7.72399C29.1904 7.77957 29.3116 7.86101 29.4135 7.96362C29.6195 8.17071 29.736 8.45301 29.736 8.74665V18.652ZM29.3547 25.5138C29.2084 25.6611 25.1171 29.0972 17.6165 29.0972C10.1159 29.0972 6.05341 25.6807 5.87929 25.5323C5.77004 25.4399 5.68012 25.3268 5.61471 25.1995C5.54929 25.0722 5.50965 24.9332 5.49808 24.7905C5.47431 24.5015 5.56579 24.2149 5.75257 23.9931C5.94213 23.773 6.21118 23.6369 6.50083 23.6147C6.79047 23.5925 7.07711 23.6859 7.29802 23.8746C7.3619 23.9199 11.0164 26.9078 17.6072 26.9078C24.1991 26.9078 27.8814 23.9024 27.9175 23.8746C28.1405 23.6867 28.4283 23.5938 28.7191 23.616C29.0098 23.6381 29.2803 23.7735 29.4722 23.9931C29.658 24.2118 29.7507 24.4946 29.7303 24.7809C29.7098 25.0672 29.578 25.334 29.363 25.5241L29.3537 25.5138H29.3547ZM5.48778 8.74768C5.50412 8.45341 5.63548 8.17736 5.85354 7.97907C6.07196 7.78125 6.35838 7.67925 6.65099 7.69368C6.92323 7.71089 7.17954 7.82797 7.3708 8.02246C7.56206 8.21696 7.67482 8.47519 7.68747 8.74768V18.6334C7.68747 18.9271 7.57208 19.2094 7.36602 19.4165C7.2642 19.5192 7.14303 19.6008 7.00952 19.6564C6.876 19.7121 6.73279 19.7407 6.58814 19.7407C6.44349 19.7407 6.30028 19.7121 6.16677 19.6564C6.03325 19.6008 5.91209 19.5192 5.81026 19.4165C5.60377 19.2082 5.48787 18.9267 5.48778 18.6334V8.74665V8.74768ZM11.0071 6.54798C11.0236 6.25229 11.1555 5.97616 11.3739 5.77835C11.5828 5.58781 11.8575 5.48574 12.1402 5.49362C12.4229 5.5015 12.6915 5.61871 12.8895 5.82059C13.0811 6.01532 13.1944 6.27392 13.2078 6.54798V21.2082C13.2078 21.5018 13.0914 21.7851 12.8854 21.9912C12.7835 22.0938 12.6623 22.1752 12.5288 22.2308C12.3953 22.2864 12.2521 22.315 12.1075 22.315C11.9629 22.315 11.8197 22.2864 11.6862 22.2308C11.5527 22.1752 11.4315 22.0938 11.3296 21.9912C11.1231 21.7829 11.0072 21.5015 11.0071 21.2082V6.54798ZM16.5532 5.9978C16.5532 5.70416 16.6686 5.42186 16.8757 5.21477C16.9776 5.11216 17.0988 5.03072 17.2323 4.97515C17.3658 4.91957 17.509 4.89096 17.6536 4.89096C17.7982 4.89096 17.9414 4.91957 18.0749 4.97515C18.2084 5.03072 18.3296 5.11216 18.4315 5.21477C18.6375 5.42186 18.7529 5.70416 18.7529 5.9978V21.9407C18.7529 22.2354 18.6375 22.5177 18.4315 22.7248C18.3296 22.8275 18.2085 22.9091 18.075 22.9647C17.9415 23.0204 17.7982 23.049 17.6536 23.049C17.5089 23.049 17.3657 23.0204 17.2322 22.9647C17.0987 22.9091 16.9775 22.8275 16.8757 22.7248C16.6693 22.5164 16.5534 22.235 16.5532 21.9417V5.9978ZM22.0077 6.54798C22.0077 6.25332 22.1241 5.97101 22.3301 5.76392C22.432 5.66119 22.5531 5.57964 22.6866 5.52398C22.8202 5.46833 22.9634 5.43968 23.108 5.43968C23.2527 5.43968 23.3959 5.46833 23.5294 5.52398C23.6629 5.57964 23.7841 5.66119 23.8859 5.76392C24.092 5.97204 24.2084 6.25332 24.2084 6.54695V21.2092C24.2084 21.5028 24.092 21.7862 23.8859 21.9922C23.784 22.0948 23.6628 22.1763 23.5293 22.2318C23.3958 22.2874 23.2526 22.316 23.108 22.316C22.9634 22.316 22.8202 22.2874 22.6867 22.2318C22.5532 22.1763 22.432 22.0948 22.3301 21.9922C22.1236 21.7839 22.0077 21.5025 22.0077 21.2092V6.54798ZM30.0358 0.500103H5.23432C4.69304 0.49625 4.1564 0.600115 3.65564 0.805653C3.15489 1.01119 2.70002 1.31429 2.31754 1.69732C1.53915 2.47243 1.10038 3.52489 1.09766 4.62338L1.09766 29.363C1.10329 30.4609 1.54162 31.5123 2.31754 32.2891C2.70072 32.6709 3.15557 32.9732 3.65595 33.1786C4.15633 33.3841 4.69238 33.4886 5.23329 33.4863H30.0358C30.5763 33.4901 31.1123 33.3866 31.6124 33.1816C32.1126 32.9766 32.5671 32.6743 32.9495 32.2922C33.7277 31.5192 34.1675 30.4691 34.1724 29.3723V4.62441C34.1678 3.52772 33.731 2.47709 32.9567 1.70041C32.5741 1.31843 32.1199 1.01577 31.6201 0.809785C31.1202 0.603805 30.5846 0.498564 30.044 0.500103" fill="white"/>
</g>
</g>
</g>
</g>
<defs>
<clipPath id="clip0_10_673">
<rect width="145.273" height="34" fill="white" transform="translate(0.58252 0.5)"/>
</clipPath>
<clipPath id="clip1_10_673">
<rect width="144.242" height="34" fill="white" transform="translate(1.09766 0.5)"/>
</clipPath>
</defs>
</svg>
