<svg width="154" height="40" viewBox="0 0 154 40" fill="none" xmlns="http://www.w3.org/2000/svg">
<g opacity="0.2" clip-path="url(#clip0_10_228)">
<path d="M60.2604 14.0525H65.0887V29.2238H60.2604V14.0525ZM66.0965 14.0525H70.7471V16.127H70.8354C71.9621 14.4964 73.4127 13.6086 75.5166 13.6086C78.8344 13.6086 80.7888 15.9787 80.7888 19.3565V29.2227H75.9604V20.3337C75.9604 18.7337 75.161 17.6387 73.5904 17.6387C71.9915 17.6387 70.9249 18.9715 70.9249 20.8376V29.2227H66.0965V14.0525ZM65.5711 9.99417C65.5711 9.22581 65.2659 8.48891 64.7226 7.94559C64.1792 7.40228 63.4423 7.09705 62.674 7.09705C61.9056 7.09705 61.1687 7.40228 60.6254 7.94559C60.0821 8.48891 59.7769 9.22581 59.7769 9.99417C59.7769 10.7625 60.0821 11.4994 60.6254 12.0427C61.1687 12.5861 61.9056 12.8913 62.674 12.8913C63.4423 12.8913 64.1792 12.5861 64.7226 12.0427C65.2659 11.4994 65.5711 10.7625 65.5711 9.99417ZM114.746 13.834C114.586 13.8209 114.426 13.8148 114.266 13.8159C112.429 13.8159 111.185 14.6164 110.118 16.4237H110.03V14.0537H105.408V29.2238H110.237V22.4093C110.237 19.2512 111.985 17.7882 114.746 18.0429V13.834ZM138.44 19.6531C136.515 19.2976 134.796 19.1492 134.796 18.0826C134.796 17.1337 135.716 16.6898 136.9 16.6898C138.233 16.6898 139.151 17.1042 139.329 18.4676H143.773C143.536 15.4748 141.225 13.6086 136.93 13.6086C133.346 13.6086 130.384 15.2675 130.384 18.4676C130.384 22.0232 133.197 22.7343 135.834 23.1782C137.848 23.5337 139.685 23.6821 139.685 25.0454C139.685 26.0226 138.766 26.556 137.315 26.556C135.859 26.556 134.896 25.94 134.6 24.6898H130C130.338 27.8083 133.075 29.6971 137.344 29.6971C141.314 29.6971 144.246 27.9782 144.246 24.6604C144.246 20.7787 141.106 20.097 138.44 19.6531ZM122.236 17.0453C123.806 17.0453 124.931 18.2003 125.109 20.0087H119.126C119.452 18.2003 120.4 17.0453 122.236 17.0453ZM122.502 26.2004C120.517 26.2004 119.392 24.9265 119.096 22.8826H129.996C130.027 19.8003 129.138 17.1642 127.331 15.5042C126.027 14.3198 124.31 13.6086 122.147 13.6086C117.526 13.6086 114.356 17.0748 114.356 21.6087C114.356 26.2004 117.437 29.6677 122.444 29.6677C124.369 29.6677 125.909 29.1638 127.182 28.2749C128.515 27.3565 129.404 26.0532 129.73 24.6898H125.021C124.605 25.6376 123.776 26.2004 122.502 26.2004ZM152.75 25.6456C152.526 25.6546 152.226 25.6682 151.949 25.6682C150.913 25.6682 150.261 25.3715 150.261 24.1848V17.0736H152.75V14.0525H150.261V9.25248H145.551V14.0525H144.069V17.0748H145.551V25.2232C145.551 28.4821 147.566 29.4016 150.38 29.4016C151.453 29.4016 152.265 29.32 152.75 29.2261V25.6456ZM89.4105 25.6523C89.218 25.6603 88.9961 25.6671 88.7877 25.6671C87.7516 25.6671 87.1005 25.3704 87.1005 24.1859V17.0748H89.4105V14.0525H87.1005V9.25248H82.3899V14.0525H80.8194V17.0748H82.3899V25.2232C82.3899 28.4821 84.4044 29.4016 87.2183 29.4016C88.1695 29.4016 88.9168 29.337 89.4105 29.2566V25.6523Z" fill="white"/>
<path d="M99.9279 20.0088C99.749 18.2004 98.6246 17.0454 97.054 17.0454C95.2174 17.0454 94.2696 18.2004 93.9446 20.0088H99.9279ZM89.1751 21.6088C89.1751 17.0748 92.3446 13.6087 96.9657 13.6087C99.1285 13.6087 100.846 14.3198 102.15 15.5043C103.957 17.1643 104.845 19.8004 104.815 22.8827H93.9152C94.2107 24.9266 95.3363 26.2005 97.3213 26.2005C98.5952 26.2005 99.424 25.6377 99.8385 24.6899H104.549C104.223 26.0521 103.334 27.3566 102.001 28.2749C100.727 29.1638 99.1874 29.6677 97.2613 29.6677C92.2563 29.6677 89.1751 26.2005 89.1751 21.6088ZM51.8754 17.9943C53.771 17.9943 54.8376 16.8676 54.8376 15.1793C54.8376 13.4898 53.7415 12.4537 51.8754 12.4537H48.1726V17.9943H51.8754ZM43.2842 8.03867H51.6682C54.2454 8.03867 56.141 8.74979 57.4443 9.99424C58.8077 11.2681 59.5777 13.0754 59.5777 15.2087C59.5777 19.2682 56.7638 22.1421 52.4088 22.1421H48.1715V29.2239H43.2842V8.03867ZM18.4268 1.03394C8.35682 1.03394 0.194824 9.19594 0.194824 19.266C0.194824 26.9909 5.00053 33.5947 11.7822 36.2512C11.6225 34.8098 11.4787 32.5903 11.8445 31.0152C12.1763 29.5919 13.9824 21.9519 13.9824 21.9519C13.9824 21.9519 13.4377 20.8592 13.4377 19.2456C13.4377 16.7091 14.9064 14.8158 16.7362 14.8158C18.291 14.8158 19.0428 15.9844 19.0428 17.3851C19.0428 18.9489 18.0464 21.2883 17.5323 23.4557C17.1031 25.2708 18.4427 26.7508 20.2318 26.7508C23.4726 26.7508 25.9626 23.3334 25.9626 18.4008C25.9626 14.0356 22.826 10.9828 18.3487 10.9828C13.1614 10.9828 10.1165 14.8747 10.1165 18.8957C10.1165 20.4628 10.72 22.1433 11.4731 23.0571C11.6225 23.2382 11.644 23.3968 11.5999 23.5802C11.4617 24.1554 11.1537 25.3942 11.0937 25.6479C11.0145 25.9819 10.8299 26.0521 10.4834 25.8913C8.20735 24.8315 6.78399 21.5023 6.78399 18.8277C6.78399 13.0754 10.9624 7.79295 18.8288 7.79295C25.1519 7.79295 30.0663 12.3008 30.0663 18.3238C30.0663 24.6084 26.1053 29.6666 20.6066 29.6666C18.7609 29.6666 17.0239 28.7064 16.4282 27.5718C16.4282 27.5718 15.5156 31.0537 15.2936 31.9075C14.8814 33.4906 13.7706 35.4767 13.0278 36.6872C14.776 37.2281 16.5958 37.5022 18.4257 37.5002C28.4923 37.5002 36.6543 29.336 36.6543 19.266C36.6543 9.19594 28.4946 1.03394 18.4257 1.03394H18.4268Z" fill="white"/>
</g>
<defs>
<clipPath id="clip0_10_228">
<rect width="154" height="39" fill="white" transform="translate(0 0.0600586)"/>
</clipPath>
</defs>
</svg>
