<svg width="130" height="38" viewBox="0 0 130 38" fill="none" xmlns="http://www.w3.org/2000/svg">
<g opacity="0.2" clip-path="url(#clip0_10_202)">
<g clip-path="url(#clip1_10_202)">
<mask id="mask0_10_202" style="mask-type:luminance" maskUnits="userSpaceOnUse" x="0" y="0" width="130" height="37">
<path d="M0 0.0600586H130V36.9001H0V0.0600586Z" fill="white"/>
</mask>
<g mask="url(#mask0_10_202)">
<path d="M45.324 20.4418C44.2307 19.8421 43.6555 19.356 43.6555 18.6694C43.6555 17.7831 44.4314 17.2398 45.6689 17.2398C47.1071 17.2398 48.3713 17.8405 48.3713 17.8405L49.3785 14.7807C49.3785 14.7807 48.4583 14.0664 45.7262 14.0664C41.9296 14.0664 39.2836 16.24 39.2836 19.2701C39.2836 20.9852 40.5201 22.3001 42.1599 23.2437C43.4825 23.9876 43.9431 24.53 43.9431 25.3026C43.9431 26.1315 43.2818 26.7885 42.0443 26.7885C40.2038 26.7885 38.478 25.846 38.478 25.846L37.4134 28.9047C37.4134 28.9047 39.0246 29.9629 41.6993 29.9629C45.6116 29.9629 48.401 28.0472 48.401 24.6159C48.4583 22.7289 47.0201 21.4139 45.324 20.4418ZM60.9117 14.0091C58.9852 14.0091 57.4897 14.924 56.3105 16.2973L56.2532 16.2686L57.9217 7.57745H53.5784L49.3509 29.6763H53.6931L55.1313 22.1292C55.7066 19.2701 57.1734 17.5263 58.5532 17.5263C59.5318 17.5263 59.9044 18.1833 59.9044 19.1268C59.9044 19.7275 59.8481 20.4418 59.7038 21.0425L58.065 29.705H62.4072L64.1044 20.7856C64.306 19.8421 64.4217 18.7267 64.4217 17.9551C64.4493 15.4684 63.1555 14.0101 60.9117 14.0101V14.0091ZM74.2863 14.0091C69.0515 14.0091 65.5712 18.698 65.5712 23.9303C65.5712 27.2746 67.642 29.9905 71.5533 29.9905C76.7021 29.9905 80.1527 25.4162 80.1527 20.0703C80.1824 16.9543 78.3695 14.0101 74.2863 14.0101V14.0091ZM72.1572 26.6462C70.6627 26.6462 70.0588 25.3875 70.0588 23.8157C70.0588 21.329 71.3526 17.2971 73.711 17.2971C75.2639 17.2971 75.7532 18.612 75.7532 19.8994C75.7532 22.5867 74.4583 26.6462 72.1572 26.6462ZM91.3122 14.0101C88.3785 14.0101 86.711 16.5828 86.711 16.5828H86.6537L86.9117 14.267H83.0577C82.8571 15.8398 82.5111 18.2119 82.1672 20.013L79.1475 35.8521H83.4897L84.6976 29.4481H84.7836C84.7836 29.4481 85.6751 30.0191 87.3426 30.0191C92.4628 30.0191 95.7988 24.8165 95.7988 19.5556C95.7988 16.6114 94.5049 14.0091 91.3122 14.0091V14.0101ZM87.1717 26.7322C86.0498 26.7322 85.3885 26.1028 85.3885 26.1028L86.1081 22.0709C86.6251 19.3847 88.0346 17.5836 89.5301 17.5836C90.8536 17.5836 91.2559 18.8126 91.2559 19.9567C91.2559 22.7299 89.5874 26.7322 87.1717 26.7322ZM102.011 7.77597C101.681 7.77377 101.353 7.8375 101.047 7.96343C100.742 8.08937 100.464 8.27498 100.231 8.5094C99.9984 8.74382 99.8146 9.02234 99.6906 9.32867C99.5666 9.63499 99.505 9.96296 99.5094 10.2934C99.5094 11.5797 100.315 12.4659 101.552 12.4659H101.609C102.96 12.4659 104.139 11.5511 104.168 9.94953C104.197 8.69186 103.335 7.777 102.012 7.777L102.011 7.77597ZM95.9144 29.6774H100.286L103.249 14.354H98.8481L95.9144 29.6774ZM114.294 14.2967H111.274L111.418 13.5813C111.676 12.0955 112.539 10.7795 114.006 10.7795C114.783 10.7795 115.387 11.0087 115.387 11.0087L116.25 7.63475C116.25 7.63475 115.501 7.26328 113.891 7.26328C112.338 7.26328 110.813 7.69308 109.634 8.69288C108.139 9.95158 107.449 11.7526 107.104 13.5813L106.989 14.2967H104.976L104.343 17.5549H106.355L104.055 29.6487H108.398L110.699 17.5549H113.69L114.294 14.2967ZM124.763 14.3529C124.763 14.3529 122.03 21.1581 120.822 24.8738H120.765C120.679 23.6735 119.701 14.354 119.701 14.354H115.128L117.745 28.4197C117.803 28.7338 117.774 28.9334 117.659 29.134C117.141 30.1061 116.307 31.0496 115.301 31.7353C114.495 32.336 113.575 32.7074 112.855 32.9653L114.063 36.6248C114.955 36.4242 116.768 35.7099 118.32 34.2803C120.305 32.4219 122.146 29.5914 124.015 25.7037L129.336 14.3529H124.763ZM21.6537 35.7089L32.4099 33.3931C32.4099 33.3931 28.5284 7.29194 28.4997 7.12104C28.4887 7.04369 28.451 6.97265 28.393 6.92029C28.335 6.86793 28.2605 6.83757 28.1824 6.83451C28.0391 6.83451 25.306 6.63496 25.306 6.63496C25.306 6.63496 23.4082 4.74793 23.1779 4.54736C23.1272 4.49986 23.0687 4.46143 23.0049 4.43377L21.6537 35.7099V35.7089ZM22.5453 4.37544C22.5166 4.37544 22.4593 4.40409 22.4307 4.40409C22.401 4.40409 21.9987 4.5187 21.3661 4.71825C20.7335 2.88853 19.6116 1.20208 17.6268 1.20208H17.4548C16.8795 0.487794 16.1896 0.172607 15.5847 0.172607C10.9548 0.172607 8.73971 5.91965 8.04978 8.83512C6.26664 9.37851 4.97175 9.77864 4.82845 9.83594C3.82223 10.1501 3.79254 10.1788 3.6779 11.1223C3.56325 11.8079 0.944824 31.9635 0.944824 31.9635L21.1644 35.7375L22.5453 4.37544ZM17.2818 5.77638V5.97695C16.1599 6.31977 14.9234 6.69124 13.7155 7.06271C14.4055 4.43274 15.7003 3.14641 16.8222 2.66033C17.1088 3.40327 17.2829 4.40409 17.2829 5.77638H17.2818ZM15.4414 1.40265C15.643 1.40265 15.8436 1.45996 16.0453 1.6022C14.5784 2.28784 12.9673 4.03262 12.306 7.52014C11.3712 7.8207 10.4317 8.10659 9.48797 8.37769C10.2639 5.71907 12.134 1.40265 15.4414 1.40265ZM16.2469 16.9266C16.2469 16.9266 15.0391 16.2973 13.6009 16.2973C11.4431 16.2973 11.3571 17.6409 11.3571 17.9837C11.3571 19.8134 16.1886 20.5288 16.1886 24.8452C16.1886 28.2478 14.0318 30.4203 11.0981 30.4203C7.58915 30.4203 5.80601 28.2478 5.80601 28.2478L6.75593 25.1593C6.75593 25.1593 8.5964 26.7322 10.1492 26.7322C11.1555 26.7322 11.5874 25.932 11.5874 25.3599C11.5874 22.9581 7.61782 22.8446 7.61782 18.8986C7.61782 15.583 10.0059 12.3523 14.8661 12.3523C16.7352 12.3523 17.6555 12.8947 17.6555 12.8947L16.2469 16.9266ZM18.0874 2.45976C19.1223 2.57437 19.7846 3.74609 20.2166 5.06209C19.6976 5.23299 19.1223 5.40491 18.4897 5.60446V5.23299C18.4897 4.11756 18.3464 3.20372 18.0874 2.45976Z" fill="white"/>
</g>
</g>
</g>
<defs>
<clipPath id="clip0_10_202">
<rect width="130" height="37" fill="white" transform="translate(0 0.0600586)"/>
</clipPath>
<clipPath id="clip1_10_202">
<rect width="130" height="36.84" fill="white" transform="translate(0 0.0600586)"/>
</clipPath>
</defs>
</svg>
