<svg width="145" height="33" viewBox="0 0 145 33" fill="none" xmlns="http://www.w3.org/2000/svg">
<g opacity="0.2" clip-path="url(#clip0_10_194)">
<g clip-path="url(#clip1_10_194)">
<mask id="mask0_10_194" style="mask-type:luminance" maskUnits="userSpaceOnUse" x="0" y="0" width="145" height="33">
<path d="M0 0.560059H145V32.3601H0V0.560059Z" fill="white"/>
</mask>
<g mask="url(#mask0_10_194)">
<path d="M39.2668 7.08742H41.7103V13.8468C42.7253 12.3643 44.0509 11.6629 45.6889 11.6629C47.9247 11.6629 49.1998 12.8844 49.1998 15.3021V23.5963H46.7554V15.9521C46.7554 14.2882 46.1314 13.7944 44.9097 13.7944C44.1547 13.7944 43.4269 14.2368 42.7506 15.1207C42.0752 16.0045 41.7113 17.1746 41.7113 18.6299V23.5963H39.2668V7.08742ZM61.5267 18.4222H53.1532C53.1532 20.2685 54.2196 21.6724 56.0653 21.6724C57.3918 21.6724 58.5874 20.9447 59.1599 19.6961L61.2404 20.5023C60.0439 22.8163 58.666 23.8301 56.0653 23.8301C52.1905 23.8301 50.5525 20.5547 50.5525 17.7732C50.5525 14.9907 52.1653 11.7153 56.0653 11.7153C59.8353 11.7153 61.5005 14.783 61.5005 17.3831V18.4222H61.5267ZM53.2308 16.3945H58.9513C58.7436 14.913 57.7557 13.8468 56.0915 13.8468C54.5311 13.7953 53.5171 14.8606 53.2308 16.3945ZM80.6386 11.6619C81.2111 11.6619 81.8089 11.8191 82.4329 12.1305C83.0578 12.4429 83.4993 12.7544 83.8118 13.1444V7.08836H86.2552V23.5963H83.8118V22.2448C83.344 22.9986 82.0437 23.8049 80.5871 23.8049C77.1287 23.8049 75.3082 21.5695 75.3082 17.747C75.3606 14.0039 77.1801 11.6638 80.6386 11.6638V11.6619ZM77.9089 17.7208C77.9089 18.9161 78.1951 19.8785 78.7414 20.58C79.2868 21.2814 80.0418 21.62 80.9249 21.62C81.8089 21.62 82.5376 21.2553 83.1092 20.58C83.6555 19.8523 83.9418 18.9161 83.9418 17.7198C83.9418 16.5245 83.6555 15.5621 83.1092 14.8859C82.5629 14.1582 81.8089 13.8197 80.9249 13.8197C80.0408 13.8197 79.313 14.1844 78.7405 14.8859C78.1942 15.5621 77.9079 16.5507 77.9079 17.7198L77.9089 17.7208ZM95.5642 13.5091L94.0301 14.8606C93.4837 14.133 92.7821 13.7944 91.9757 13.7944C91.3256 13.7944 90.8064 14.2368 90.8064 14.9645C90.8064 15.2245 90.9355 15.4845 91.1179 15.6931C91.5342 16.1083 91.8981 16.2645 92.9122 16.6545C93.7176 16.9669 94.0815 17.0969 94.7317 17.5122C95.6681 18.0584 96.1106 18.7861 96.2144 20.0347C96.2269 20.5307 96.1336 21.0236 95.9409 21.4808C95.7481 21.9379 95.4603 22.3489 95.0965 22.6863C94.3416 23.4139 93.3799 23.7525 92.132 23.7525C89.87 23.7525 88.3096 22.2962 87.5556 20.6062L89.6099 19.4885C90.2339 20.9185 91.0917 21.621 92.2105 21.621C93.277 21.621 93.7962 21.1262 93.7962 20.0871C93.7962 19.6699 93.64 19.4099 93.1975 19.1499C93.0072 19.0224 92.8074 18.9098 92.5997 18.8132C92.2358 18.6561 91.378 18.3446 91.0141 18.1884C89.3236 17.487 88.4658 16.4207 88.4658 14.9645C88.4548 14.5179 88.5423 14.0743 88.7221 13.6654C88.9019 13.2564 89.1695 12.8921 89.5061 12.5982C90.1815 11.9491 91.0402 11.6105 92.1067 11.6105C93.5099 11.6629 94.8102 12.3643 95.5642 13.5091ZM103.391 23.7787C102.013 23.7787 100.817 23.1286 100.219 22.2962V28.3541H97.7748V11.8462H100.219V13.1715C100.687 12.4177 101.987 11.6376 103.443 11.6376C106.901 11.6376 108.722 13.873 108.722 17.6946C108.722 21.4648 106.876 23.7787 103.391 23.7787ZM106.121 17.747C106.121 16.5507 105.836 15.5892 105.29 14.913C104.743 14.1854 103.989 13.8468 103.105 13.8468C102.221 13.8468 101.493 14.2116 100.921 14.913C100.375 15.6145 100.089 16.5507 100.089 17.747C100.089 18.9432 100.375 19.9047 100.921 20.6071C101.467 21.3086 102.221 21.6462 103.105 21.6462C103.989 21.6462 104.717 21.2824 105.29 20.6071C105.861 19.8785 106.121 18.917 106.121 17.747ZM132.852 20.5547C131.889 22.7386 130.2 23.8049 127.755 23.8049C125.986 23.8049 124.582 23.2325 123.62 22.0886C122.658 20.9195 122.19 19.4885 122.19 17.747C122.19 16.0054 122.658 14.5754 123.62 13.4315C124.582 12.2615 125.961 11.6891 127.755 11.6891C130.225 11.6891 131.889 12.7553 132.852 14.9392L130.667 15.8745C130.07 14.523 129.081 13.8477 127.755 13.8477C125.779 13.8477 124.791 15.4069 124.791 17.7732C124.791 20.1394 125.779 21.6986 127.755 21.6986C129.107 21.6986 130.07 21.0224 130.667 19.6709L132.852 20.5547ZM144.632 18.4222H136.26C136.26 20.2685 137.325 21.6724 139.172 21.6724C139.823 21.6753 140.461 21.4904 141.01 21.1399C141.559 20.7894 141.995 20.2881 142.266 19.6961L144.347 20.5023C143.15 22.8163 141.772 23.8301 139.172 23.8301C135.297 23.8301 133.659 20.5547 133.659 17.7732C133.659 14.9907 135.272 11.7153 139.172 11.7153C142.943 11.7153 144.607 14.783 144.607 17.3831V18.4222H144.632ZM136.337 16.3945H142.058C141.85 14.913 140.862 13.8468 139.198 13.8468C137.638 13.7953 136.624 14.8606 136.337 16.3945ZM68.2332 11.69C68.8047 11.69 69.4025 11.8453 70.0274 12.1576C70.6514 12.4691 71.0939 12.7815 71.4054 13.1715V11.8714H73.8498V23.6487H71.8217L71.4054 22.2972C70.9376 23.051 69.6373 23.8563 68.1808 23.8563C64.7223 23.8563 62.9018 21.621 62.9018 17.7993C62.9018 14.0301 64.7485 11.69 68.2332 11.69ZM65.4763 17.747C65.4763 18.9432 65.7625 19.9047 66.3089 20.6071C66.8543 21.3086 67.6092 21.6471 68.4932 21.6471C69.3773 21.6471 70.1051 21.2824 70.6776 20.6071C71.223 19.8785 71.5092 18.9423 71.5092 17.747C71.5092 16.5507 71.223 15.5892 70.6766 14.913C70.1312 14.1854 69.3763 13.8468 68.4932 13.8468C67.6092 13.8468 66.8804 14.2116 66.3089 14.913C65.7625 15.5892 65.4763 16.5507 65.4763 17.747ZM115.196 11.69C115.769 11.69 116.367 11.8453 116.991 12.1576C117.615 12.4691 118.057 12.7815 118.369 13.1715V11.8714H120.813V23.6487H118.785L118.369 22.2972C117.901 23.051 116.6 23.8563 115.145 23.8563C111.686 23.8563 109.866 21.621 109.866 17.7993C109.866 14.0301 111.713 11.69 115.196 11.69ZM112.44 17.747C112.44 18.9432 112.727 19.9047 113.272 20.6071C113.818 21.3086 114.572 21.6471 115.456 21.6471C116.34 21.6471 117.069 21.2824 117.641 20.6071C118.187 19.8785 118.473 18.9423 118.473 17.747C118.473 16.5507 118.187 15.5892 117.641 14.913C117.095 14.1854 116.34 13.8468 115.456 13.8468C114.572 13.8468 113.845 14.2116 113.272 14.913C112.727 15.5892 112.44 16.5507 112.44 17.747ZM31.7259 16.2393C32.0898 21.2309 29.7492 24.0649 28.3451 26.0412C26.1607 28.3289 23.4048 31.4481 16.3578 31.6305C10.3763 31.8643 7.46412 29.238 5.0197 27.0026C1.79602 23.4925 0.963444 21.4133 0.833412 16.2655C0.807218 13.0939 2.05609 9.94755 4.18806 7.16505C7.17786 2.95436 11.9891 1.52523 16.384 1.21284C21.0118 1.05758 24.7051 3.3715 27.2262 5.86686C30.3994 9.22083 31.4134 12.1053 31.7259 16.2393Z" fill="white"/>
</g>
</g>
</g>
<defs>
<clipPath id="clip0_10_194">
<rect width="145" height="32" fill="white" transform="translate(0 0.560059)"/>
</clipPath>
<clipPath id="clip1_10_194">
<rect width="145" height="31.8" fill="white" transform="translate(0 0.560059)"/>
</clipPath>
</defs>
</svg>
