<svg width="146" height="41" viewBox="0 0 146 41" fill="none" xmlns="http://www.w3.org/2000/svg">
<g opacity="0.2">
<g clip-path="url(#clip0_10_233)">
<mask id="mask0_10_233" style="mask-type:luminance" maskUnits="userSpaceOnUse" x="0" y="0" width="146" height="41">
<path d="M0 0.854248H146V40.2757H0V0.854248Z" fill="white"/>
</mask>
<g mask="url(#mask0_10_233)">
<path d="M18.3449 5.96448C16.4167 5.96448 13.9576 8.42362 13.9576 12.7047V14.7926C12.6843 13.9791 11.1982 13.5359 9.34087 13.5359C4.08696 13.5536 0 17.6939 0 22.8239C0 27.955 3.90967 32.0952 9.30541 32.0952C11.9053 32.0952 13.9576 31.1566 15.3018 29.8655C16.1872 31.0857 17.2833 31.7584 18.2385 31.7584C18.9821 31.7584 19.3544 31.3517 19.3544 30.4485V7.18466C19.3544 6.37121 18.9821 5.96448 18.3449 5.96448ZM9.71213 27.2291C7.11124 27.2291 5.46666 25.3362 5.46666 22.8072C5.46666 20.2772 7.11124 18.3833 9.71213 18.3833C12.313 18.3833 13.9576 20.2772 13.9576 22.8062C13.9576 25.354 12.313 27.2291 9.71213 27.2291ZM39.273 14.2263H37.4511C36.1423 14.2263 35.6647 14.7571 35.6647 16.0128V22.6831C35.6647 25.3717 34.2839 26.9642 32.0553 26.9642C29.7558 26.9642 28.5878 25.4416 28.5878 22.6122V16.0128C28.5878 14.7039 28.057 14.2263 26.8014 14.2263H24.9796C23.7229 14.2263 23.1921 14.7039 23.1921 16.0128V22.753C23.1921 28.5202 26.0933 32.0942 31.1887 32.0942C33.4528 32.0942 35.4697 31.2098 36.8848 29.6705C37.7337 31.0159 38.9017 31.7584 39.9456 31.7584C40.5817 31.7584 41.0594 31.3517 41.0594 30.4485V16.0128C41.0594 14.7039 40.5286 14.2263 39.273 14.2263ZM53.6383 32.0942C59.1039 32.0942 63.1732 27.9539 63.1732 22.8239C63.1732 17.5698 59.0862 13.5536 53.6383 13.5536C48.2071 13.5536 44.1024 17.6939 44.1024 22.825C44.1024 28.078 48.2071 32.0942 53.6383 32.0942ZM53.6383 27.2291C51.1793 27.2291 49.5503 25.3362 49.5503 22.8072C49.5503 20.2772 51.1605 18.3833 53.6383 18.3833C56.1328 18.3833 57.7242 20.2772 57.7242 22.8062C57.7065 25.354 56.1328 27.2291 53.6383 27.2291ZM67.9317 31.4215H69.7536C70.9925 31.4215 71.54 30.9449 71.54 29.6351V7.27331C71.54 6.37121 71.1687 5.96448 70.4262 5.96448C68.6044 5.96448 66.1453 8.42362 66.1453 12.7047V29.6351C66.1453 30.9449 66.6751 31.4215 67.9317 31.4215ZM78.4229 11.7671C80.0674 11.7671 81.4649 10.4938 81.4649 8.86581C81.4649 7.2389 80.0674 5.96448 78.4229 5.96448C76.7428 5.96448 75.3808 7.23785 75.3808 8.86581C75.3808 10.4927 76.7251 11.7671 78.4229 11.7671ZM77.502 31.4215H79.3239C80.6337 31.4215 81.1113 30.8917 81.1113 29.6351V16.0128C81.1113 14.7571 80.6337 14.2263 79.3239 14.2263H77.502C76.1932 14.2263 75.7156 14.7571 75.7156 16.0128V29.6351C75.7156 30.874 76.1932 31.4215 77.502 31.4215ZM95.2994 13.5536C93.0698 13.5536 90.9476 14.4568 89.4615 16.0482C88.5761 14.633 87.4092 13.8894 86.4007 13.8894C85.6572 13.8894 85.2859 14.2962 85.2859 15.1993V29.6351C85.2859 30.9449 85.8178 31.4215 87.0734 31.4215H88.8952C90.204 31.4215 90.6816 30.8917 90.6816 29.6351V22.948C90.6816 20.2772 92.2386 18.6669 94.5204 18.6669C96.8387 18.6669 98.0588 20.224 98.0588 23.0189V29.6351C98.0588 30.9449 98.5896 31.4215 99.8452 31.4215H101.667C102.924 31.4215 103.455 30.9449 103.455 29.6351V22.753C103.455 17.1276 100.589 13.5536 95.2994 13.5536ZM121.322 26.0976C122.913 24.9118 123.887 23.1253 123.887 21.0729C123.887 20.224 123.71 19.4627 123.374 18.7201C125.161 17.8347 125.832 16.2255 125.832 14.7039C125.832 13.1824 125.232 12.7402 124.347 13.1469C121.18 14.5976 120.738 14.6695 118.65 14.2972C117.341 14.0678 116.386 13.8905 115.113 13.8905C112.76 13.8905 110.831 14.633 109.204 15.9773C107.682 17.2517 106.903 19.1091 106.903 21.0729C106.903 23.1253 107.842 24.9107 109.469 26.0976C107.347 27.2114 105.86 29.5641 105.86 32.3601C105.86 36.977 109.575 40.1798 115.36 40.1798C121.428 40.1798 124.896 36.6412 124.896 32.0243C124.931 29.2283 123.444 27.1405 121.322 26.0976ZM115.395 18.2779C117.359 18.2779 118.561 19.2854 118.561 21.3201C118.561 22.9303 117.217 24.3632 115.395 24.3632C113.573 24.3632 112.265 22.948 112.265 21.3201C112.265 19.4095 113.502 18.2779 115.395 18.2779ZM115.395 35.7391C113.043 35.7391 111.291 34.2165 111.291 32.2715C111.291 30.1127 112.936 28.8039 115.395 28.8039C117.89 28.8039 119.535 30.1127 119.535 32.2715C119.535 34.253 117.819 35.7391 115.395 35.7391ZM136.465 32.0942C141.932 32.0942 146 27.9539 146 22.8239C146 17.5698 141.913 13.5536 136.465 13.5536C131.034 13.5536 126.929 17.6939 126.929 22.825C126.929 28.078 131.034 32.0942 136.465 32.0942ZM136.465 27.2291C134.006 27.2291 132.378 25.3362 132.378 22.8072C132.378 20.2772 133.988 18.3833 136.465 18.3833C138.96 18.3833 140.551 20.2772 140.551 22.8062C140.551 25.354 138.96 27.2291 136.465 27.2291Z" fill="white"/>
</g>
</g>
</g>
<defs>
<clipPath id="clip0_10_233">
<rect width="146" height="39.63" fill="white" transform="translate(0 0.75)"/>
</clipPath>
</defs>
</svg>
