<svg width="161" height="25" viewBox="0 0 161 25" fill="none" xmlns="http://www.w3.org/2000/svg">
<g opacity="0.2" clip-path="url(#clip0_10_219)">
<g clip-path="url(#clip1_10_219)">
<mask id="mask0_10_219" style="mask-type:luminance" maskUnits="userSpaceOnUse" x="0" y="0" width="161" height="25">
<path d="M0 0.906128H161V24.3547H0V0.906128Z" fill="white"/>
</mask>
<g mask="url(#mask0_10_219)">
<path d="M49.9704 11.8185H37.4937V24.2911H49.9712L49.9704 11.8185ZM0.0644531 24.2903V13.3104L12.4735 0.906128H23.4578V11.8861L11.0487 24.2903H0.0644531Z" fill="white"/>
<path d="M18.7791 24.2903V13.3104L31.1881 0.906128H42.174V11.8861L29.7633 24.2903H18.7799H18.7791ZM75.9542 17.3346L69.5697 2.66517H64.4129V22.2384H68.264L68.2721 9.04795L74.0978 22.2384H77.8097L83.6435 9.05036V22.2392H87.4955V2.66356H82.3354L75.9542 17.333V17.3346ZM96.7972 7.57457C90.3766 7.57457 89.0298 11.5883 89.0298 14.9535C89.0298 20.0955 91.5953 22.5932 96.8729 22.5932C102.15 22.5932 104.666 20.1164 104.666 15.0227C104.666 9.92908 102.018 7.57135 96.8005 7.57135L96.7972 7.57457ZM93.0323 14.8843C93.0323 12.3126 93.6135 11.0057 96.7972 11.0057C99.7604 11.0057 100.663 11.9553 100.663 15.0759C100.663 18.1964 99.7717 19.1693 96.8479 19.1693C93.9242 19.1693 93.0323 18.1691 93.0323 14.8868V14.8843ZM114.774 7.59871H114.698C112.386 7.60917 110.58 9.25636 110.105 10.0039V2.66517H106.204V22.2384H110.105V22.1056L110.125 20.2387C110.759 21.2727 112.456 22.5948 114.675 22.5948C119.525 22.5948 121.596 20.3956 121.596 15.24C121.596 10.0852 119.492 7.60032 114.774 7.60032V7.59871ZM117.669 14.9535C117.669 18.8482 115.872 19.1645 113.7 19.1645C111.528 19.1645 109.781 18.8531 109.781 15.0469C109.781 12.1524 110.894 11.0251 113.751 11.0251C116.607 11.0251 117.669 12.0148 117.669 14.9511V14.9535ZM131.712 7.59871H131.636C129.325 7.60917 127.518 9.25636 127.043 10.0039V2.66517H123.142V22.2384H127.043V22.1056L127.063 20.2387C127.698 21.2703 129.394 22.5924 131.614 22.5924C136.464 22.5924 138.535 20.3924 138.535 15.2376C138.535 10.0828 136.43 7.59871 131.712 7.59871ZM134.607 14.9535C134.607 18.8482 132.81 19.1645 130.639 19.1645C128.466 19.1645 126.719 18.8531 126.719 15.0469C126.719 12.1524 127.832 11.0251 130.689 11.0251C133.545 11.0251 134.607 12.0148 134.607 14.9511V14.9535ZM144.09 7.9069H140.188V22.24H144.09V7.9069ZM154.546 7.59307C152.378 7.59307 150.629 8.95299 150.067 10.0031V7.90771H146.165V22.2392H150.067V13.8865C150.067 12.0148 150.624 11.1208 153.787 11.1208C156.184 11.1208 157.033 11.8684 157.033 13.9799V22.2368H160.935V14.8336C160.935 9.44788 159.322 7.62043 154.546 7.59146V7.59388V7.59307ZM144.09 2.66437H140.188V6.378H144.09V2.66437Z" fill="white"/>
</g>
</g>
</g>
<defs>
<clipPath id="clip0_10_219">
<rect width="161" height="24" fill="white" transform="translate(0 0.560059)"/>
</clipPath>
<clipPath id="clip1_10_219">
<rect width="161" height="24.1406" fill="white" transform="translate(0 0.560059)"/>
</clipPath>
</defs>
</svg>
