<svg width="69" height="70" viewBox="0 0 69 70" fill="none" xmlns="http://www.w3.org/2000/svg">
<g opacity="0.2">
<g clip-path="url(#clip0_10_210)">
<mask id="mask0_10_210" style="mask-type:luminance" maskUnits="userSpaceOnUse" x="0" y="0" width="69" height="70">
<path d="M0 0.0600586H69V69.0601H0V0.0600586Z" fill="white"/>
</mask>
<g mask="url(#mask0_10_210)">
<path d="M31.2674 37.1338H39.6279V34.3565H38.7125C38.7125 35.426 37.919 36.2195 36.7287 36.2195H35.4476V32.0381H36.8207V31.1227H31.2363V32.0381H32.6393V36.2184H31.2363V37.1338H31.2674ZM43.6575 37.1338H46.9223L49.6685 32.0381H51.0416V31.0917H46.8913V32.0381H48.0815L46.0679 35.7607L44.0542 32.0381H45.5182V31.0917H39.4761L39.4462 32.0381H40.8492L43.6575 37.1338ZM14.6062 31.0917H8.56409V32.0381H9.93719L12.7754 37.1338H16.0103L18.7876 32.0381H20.1607V31.0917H16.0092V32.0381H17.2006L15.1858 35.7607L13.1422 32.0381H14.605V31.0917H14.6062ZM20.9829 34.1139C20.9829 35.8837 22.417 37.3178 25.2862 37.3178C28.1543 37.3178 29.5585 35.9148 29.5585 34.1139C29.5585 32.3751 28.0635 30.9709 25.2552 30.9709C22.448 30.9709 20.9829 32.3739 20.9829 34.1139ZM26.7502 34.1449C26.7203 35.2432 26.2925 36.3725 25.2253 36.3725C24.2179 36.3414 23.7602 35.2121 23.7602 34.1139C23.7901 32.9547 24.3398 31.9473 25.2851 31.9473C26.2626 31.9473 26.7801 32.9857 26.7502 34.1449ZM51.8673 34.1139C51.8673 35.8837 53.3014 37.3178 56.1695 37.3178C59.0376 37.3178 60.4417 35.9148 60.4417 34.1139C60.4417 32.3751 58.9467 30.9709 56.1396 30.9709C53.3313 30.9709 51.8673 32.3739 51.8673 34.1139ZM56.2005 31.9174C57.1458 31.9473 57.6645 32.9547 57.6346 34.1139C57.6035 35.2121 57.1769 36.3414 56.1085 36.3414C55.0712 36.3115 54.6434 35.1822 54.6434 34.084C54.6745 32.9236 55.2242 31.9174 56.2005 31.9174Z" fill="white"/>
<path d="M62.8475 14.9526L59.34 18.4601C62.4341 23.2529 64.0766 28.838 64.07 34.5428C64.07 50.8993 50.8266 64.1427 34.469 64.1427C18.1137 64.1427 4.87027 50.8993 4.87027 34.5417C4.87027 18.1864 18.1137 4.94296 34.4701 4.94296C40.4202 4.94296 45.9437 6.68176 50.5816 9.70396L54.0914 6.19416C48.5358 2.31866 41.7623 0.0600586 34.469 0.0600586C15.456 0.0600586 0.0460205 15.5011 0.0460205 34.5118C0.0460205 53.5236 15.4871 68.9635 34.4977 68.9635C53.5095 68.9635 68.9506 53.5236 68.9506 34.5118C68.9506 27.2495 66.692 20.5059 62.8475 14.9526Z" fill="white"/>
<path d="M51.8306 1.43311V2.41061C53.9362 3.53876 55.8901 4.88196 57.7209 6.37696L52.8069 11.2898C54.6699 12.7549 56.3478 14.4028 57.7818 16.2635L62.6946 11.3507C64.1964 13.1762 65.5247 15.1377 66.6621 17.21H67.6074V1.43311H51.8306Z" fill="white"/>
</g>
</g>
</g>
<defs>
<clipPath id="clip0_10_210">
<rect width="69" height="69" fill="white" transform="translate(0 0.0600586)"/>
</clipPath>
</defs>
</svg>
