<svg width="115" height="35" viewBox="0 0 115 35" fill="none" xmlns="http://www.w3.org/2000/svg">
<g clip-path="url(#clip0_10_609)">
<mask id="mask0_10_609" style="mask-type:luminance" maskUnits="userSpaceOnUse" x="0" y="0" width="115" height="35">
<path d="M0.808838 0.5H114.142V34.5H0.808838V0.5Z" fill="white"/>
</mask>
<g mask="url(#mask0_10_609)">
<path d="M34.8202 15.7207H24.4595L33.4314 10.5413L31.652 7.45867L22.6781 12.638L27.8585 3.66715L24.7758 1.88885L19.5954 10.8566V0.5H16.0326V10.8576L10.8523 1.88782L7.76962 3.66818L12.949 12.6359L3.9781 7.45867L2.19568 10.5413L11.1696 15.7207H0.807861V19.2804H11.1676L2.19568 24.4597L3.97501 27.5424L12.949 22.363L7.76859 31.3339L10.8513 33.1132L16.0337 24.1434V34.5H19.5944V23.9219L24.8696 33.0565L27.7606 31.3875L22.4844 22.2507L31.649 27.5413L33.4293 24.4587L24.4585 19.2793H34.8182V15.7207H34.8202ZM17.8151 22.3393C16.6946 22.3408 15.6082 21.9534 14.7415 21.2433C13.8748 20.5331 13.2814 19.5442 13.0625 18.4452C12.8436 17.3463 13.0129 16.2055 13.5414 15.2174C14.0699 14.2294 14.9249 13.4554 15.9605 13.0275C16.845 12.6613 17.8182 12.5655 18.7571 12.7522C19.696 12.9389 20.5585 13.3996 21.2357 14.0763C21.9125 14.7531 22.3735 15.6154 22.5603 16.5541C22.7471 17.4929 22.6514 18.466 22.2853 19.3503C21.9192 20.2347 21.2992 20.9907 20.5035 21.5227C19.7078 22.0548 18.7722 22.3389 17.8151 22.3393Z" fill="white" fill-opacity="0.4"/>
<path d="M43.999 29.936V5.06445H48.5633V29.936H43.999ZM87.7828 13.0338H92.141V15.0965C93.0682 13.448 95.2319 12.5527 97.0854 12.5527C99.386 12.5527 101.24 13.55 102.097 15.3695C103.434 13.3069 105.221 12.5527 107.452 12.5527C110.575 12.5527 113.561 14.4423 113.561 18.9766V29.936H109.134V19.9049C109.134 18.0844 108.24 16.7089 106.147 16.7089C104.189 16.7089 103.022 18.2225 103.022 20.043V29.937H98.4928V19.9049C98.4928 18.0844 97.5655 16.7089 95.5049 16.7089C93.5144 16.7089 92.347 18.1885 92.347 20.043V29.937H87.7828V13.0338ZM58.8807 30.4254C53.7374 30.4254 50.0139 26.6101 50.0139 21.4854C50.0139 16.4421 53.7261 12.5362 58.8807 12.5362C64.0601 12.5362 67.7475 16.4781 67.7475 21.4854C67.7475 26.5741 64.0219 30.4254 58.8807 30.4254ZM58.8807 16.6729C57.605 16.6745 56.382 17.1823 55.4803 18.0848C54.5786 18.9873 54.0718 20.2107 54.0713 21.4865C54.0724 22.7619 54.5793 23.9849 55.4809 24.8871C56.3826 25.7893 57.6052 26.2971 58.8807 26.299C60.156 26.2968 61.3784 25.7889 62.2798 24.8868C63.1812 23.9846 63.6881 22.7618 63.6891 21.4865C63.6883 20.211 63.1816 18.9879 62.2802 18.0855C61.3788 17.1831 60.1562 16.6751 58.8807 16.6729ZM77.4983 30.4264C72.355 30.4264 68.6305 26.6101 68.6305 21.4854C68.6305 16.4421 72.3437 12.5362 77.4983 12.5362C82.6776 12.5362 86.3651 16.4781 86.3651 21.4854C86.3651 26.5741 82.6364 30.4264 77.4983 30.4264ZM77.4983 16.6152C76.2079 16.6171 74.971 17.1307 74.0588 18.0433C73.1466 18.9559 72.6335 20.193 72.6322 21.4834C72.6333 22.7739 73.1462 24.0113 74.0584 24.9241C74.9707 25.8369 76.2078 26.3507 77.4983 26.3526C78.7886 26.3504 80.0255 25.8366 80.9375 24.9238C81.8495 24.011 82.3623 22.7737 82.3634 21.4834C82.362 20.1932 81.8491 18.9562 80.9371 18.0436C80.0251 17.1311 78.7885 16.6174 77.4983 16.6152Z" fill="white"/>
</g>
</g>
<defs>
<clipPath id="clip0_10_609">
<rect width="114.364" height="34" fill="white" transform="translate(0.464844 0.5)"/>
</clipPath>
</defs>
</svg>
